# xmcd
#
# Track frame offsets:
#	150
#	22019
#	52804
#	87867
#	131815
#	137900
#
# Disc length: 2432 seconds
#
# Revision: 0
# Processed by: cddbd v1.5.2PL0 Copyright (c) Steve Scherf et al.
# Submitted via: audiograbber 1.83.01
#
DISCID=4d097e06
DTITLE=Jean-Michel Jarre - Original Album Classics 2 [CD 2) - The Concerts In C
DTITLE=hina - Part I [remastered 2015]
DYEAR=1982
DGENRE=Electronic
TTITLE0=L'Ouverture [live]
TTITLE1=Arpegiateur [live]
TTITLE2=Equinoxe Part 4 [live]
TTITLE3=Jonques de pecheurs au crepuscule [live]
TTITLE4=L'Orchestre sous la pluie [live]
TTITLE5=Equinoxe Part 7 [live]
EXTD=
EXTT0=
EXTT1=
EXTT2=
EXTT3=
EXTT4=
EXTT5=
PLAYORDER=
